HIERARCHY
ROOT Hips
{
	OFFSET -3.958830 18.904000 13.208200
	CHANNELS 6 Xposition Yposition Zposition Zrotation Yrotation Xrotation 
	JOINT LHipJoint
	{
		OFFSET 0.000000 0.000000 0.000000
		CHANNELS 3 Zrotation Yrotation Xrotation
		JOINT LeftUpLeg
		{
			OFFSET 1.800000 -1.400000 0.085000
			CHANNELS 3 Zrotation Yrotation Xrotation
			JOINT LeftLeg
			{
				OFFSET 2.215000 -6.000000 0.000000
				CHANNELS 3 Zrotation Yrotation Xrotation
				JOINT LeftFoot
				{
					OFFSET 2.500000 -6.900000 0.000000
					CHANNELS 3 Zrotation Yrotation Xrotation
					JOINT LeftToeBase
					{
						OFFSET 0.200000 -0.500000 1.950000
						CHANNELS 3 Zrotation Yrotation Xrotation
						End Site
						{
							OFFSET 0.000000 0.000000 0.000000
						}
					}
				}
			}
		}
	}
	JOINT RHipJoint
	{
		OFFSET 0.000000 0.000000 0.000000
		CHANNELS 3 Zrotation Yrotation Xrotation
		JOINT RightUpLeg
		{
			OFFSET -1.800000 -1.400000 0.085000
			CHANNELS 3 Zrotation Yrotation Xrotation
			JOINT RightLeg
			{
				OFFSET -2.215000 -6.000000 0.000000
				CHANNELS 3 Zrotation Yrotation Xrotation
				JOINT RightFoot
				{
					OFFSET -2.500000 -6.900000 0.000000
					CHANNELS 3 Zrotation Yrotation Xrotation
					JOINT RightToeBase
					{
						OFFSET -0.200000 -0.500000 1.950000
						CHANNELS 3 Zrotation Yrotation Xrotation
						End Site
						{
							OFFSET 0.000000 0.000000 0.000000
						}
					}
				}
			}
		}
	}
	JOINT LowerBack
	{
		OFFSET 0.000000 0.000000 0.000000
		CHANNELS 3 Zrotation Yrotation Xrotation
		JOINT Spine
		{
			OFFSET -0.087000 1.940000 -0.288900
			CHANNELS 3 Zrotation Yrotation Xrotation
			JOINT Spine1
			{
				OFFSET 0.000000 1.950000 0.060000
				CHANNELS 3 Zrotation Yrotation Xrotation
				JOINT Neck
				{
					OFFSET 0.000000 0.000000 0.000000
					CHANNELS 3 Zrotation Yrotation Xrotation
					JOINT Neck1
					{
						OFFSET 0.000000 1.600000 0.340000
						CHANNELS 3 Zrotation Yrotation Xrotation
						JOINT Head
						{
							OFFSET 0.000000 1.667000 -0.240000
							CHANNELS 3 Zrotation Yrotation Xrotation
							End Site
							{
								OFFSET 0.000000 0.000000 0.000000
							}
						}
					}
				}
				JOINT LeftShoulder
				{
					OFFSET 0.000000 0.000000 0.000000
					CHANNELS 3 Zrotation Yrotation Xrotation
					JOINT LeftArm
					{
						OFFSET 2.700000 1.550000 -0.730000
						CHANNELS 3 Zrotation Yrotation Xrotation
						JOINT LeftForeArm
						{
							OFFSET 5.450000 0.000000 0.000000
							CHANNELS 3 Zrotation Yrotation Xrotation
							JOINT LeftHand
							{
								OFFSET 3.450000 0.000000 0.000000
								CHANNELS 3 Zrotation Yrotation Xrotation
								JOINT LeftHandIndex1
								{
									OFFSET 0.750000 0.000000 0.000000
									CHANNELS 3 Zrotation Yrotation Xrotation
									End Site
									{
										OFFSET 0.000000 0.000000 0.000000
									}
								}
							}
						}
					}
				}
				JOINT RightShoulder
				{
					OFFSET 0.000000 0.000000 0.000000
					CHANNELS 3 Zrotation Yrotation Xrotation
					JOINT RightArm
					{
						OFFSET -2.700000 1.550000 -0.730000
						CHANNELS 3 Zrotation Yrotation Xrotation
						JOINT RightForeArm
						{
							OFFSET -5.450000 0.000000 0.000000
							CHANNELS 3 Zrotation Yrotation Xrotation
							JOINT RightHand
							{
								OFFSET -3.450000 0.000000 0.000000
								CHANNELS 3 Zrotation Yrotation Xrotation
								JOINT RightHandIndex1
								{
									OFFSET -0.750000 0.000000 0.000000
									CHANNELS 3 Zrotation Yrotation Xrotation
									End Site
									{
										OFFSET 0.000000 0.000000 0.000000
									}
								}
							}
						}
					}
				}
			}
		}
	}
}
MOTION
Frames: 9
Frame Time: 0.016667
0.628350 16.992520 -3.469670 2.405317 25.260809 4.702348 -14.899314 12.108112 2.940646 2.456214 -2.772231 -18.115437 -8.261683 4.754859 9.104335 -0.521448 3.209315 3.480275 0.249910 0.248480 0.101440 18.478021 -11.789873 2.626596 -16.220115 -0.240448 -7.738818 8.341281 -5.640845 9.224832 -0.119353 -4.520170 2.775749 0.378430 0.325940 0.107930 -4.842083 1.224726 -7.435534 10.573956 8.562538 8.926423 2.800935 6.961829 19.619212 -1.817506 -0.258789 -9.624866 -1.812984 0.945960 41.694031 -2.714570 2.094490 -0.365710 -8.523969 -25.204133 1.469345 -10.546486 -36.297609 2.563940 42.019862 -61.159070 -20.378736 -3.696248 2.619639 -0.105230 0.357860 -0.226950 0.105260 12.623513 28.473676 8.912627 41.199077 46.636798 9.306381 -29.027725 66.938836 -17.414670 1.378078 -0.947927 -0.155850 0.188690 0.027610 -0.059000 
0.629100 16.991310 -3.469990 2.415261 25.200244 4.742014 -14.904012 12.118022 2.946188 2.461155 -2.774011 -18.128211 -8.308323 4.758648 9.053498 -0.518565 3.212760 3.479019 0.248310 0.246490 0.100970 18.473694 -11.778786 2.617474 -16.253634 -0.238318 -7.820079 8.323219 -5.645382 9.303087 -0.117402 -4.511444 2.777359 0.376090 0.325820 0.108280 -4.825337 1.183194 -7.426580 10.468715 8.543872 8.915951 2.949631 6.881663 19.591227 -1.970247 -0.271512 -9.589671 -1.897356 0.948688 41.729551 -2.681050 2.098230 -0.356830 -8.399368 -24.936260 1.359824 -10.533554 -36.247305 2.573847 42.150415 -61.457512 -20.547030 -3.692256 2.615449 -0.104520 0.357000 -0.226110 0.104600 12.792465 28.161108 8.987121 41.811329 46.224874 9.127590 -28.154668 68.003564 -17.363604 1.382128 -0.963544 -0.155310 0.188200 0.028230 -0.058620 
0.630880 16.989220 -3.471220 2.408853 25.091528 4.792076 -14.911836 12.139430 2.955575 2.493206 -2.771037 -18.133729 -8.387087 4.762949 8.943728 -0.511226 3.219296 3.477504 0.244170 0.240550 0.099310 18.466134 -11.757617 2.600900 -16.306375 -0.237355 -7.975197 8.333395 -5.668744 9.482466 -0.114005 -4.497376 2.780028 0.369860 0.325960 0.108660 -4.797493 1.100168 -7.411511 10.339422 8.496632 8.920507 3.225915 6.724459 19.517795 -2.257319 -0.315076 -9.520921 -2.111824 0.973490 41.878831 -2.582530 2.097700 -0.275660 -8.149146 -24.460359 1.174049 -10.508032 -36.178905 2.600843 42.204431 -61.981944 -20.748432 -3.685139 2.611568 -0.102820 0.354780 -0.224680 0.103850 13.085591 27.610114 9.092458 42.780409 45.289253 8.711615 -25.954363 70.102341 -16.953266 1.399587 -1.012416 -0.154400 0.186910 0.029180 -0.057580 
0.633600 16.986340 -3.472690 2.371995 24.936506 4.861412 -14.919665 12.164692 2.967174 2.541524 -2.778211 -18.187464 -8.465236 4.768995 8.849576 -0.503493 3.224780 3.475675 0.237900 0.231720 0.097570 18.458575 -11.731968 2.581671 -16.368147 -0.237204 -8.177014 8.320303 -5.686452 9.664968 -0.108889 -4.475596 2.786394 0.361110 0.324810 0.107490 -4.768300 1.001123 -7.393102 10.240065 8.433340 8.920267 3.553864 6.530253 19.376270 -2.600861 -0.338761 -9.421531 -2.343721 0.984320 42.168969 -2.488800 2.124510 -0.144190 -7.798117 -23.806233 0.911320 -10.527846 -36.090980 2.677833 41.704719 -62.960145 -20.804059 -3.676333 2.613238 -0.099450 0.351590 -0.222900 0.102060 13.380327 26.822109 9.204721 44.048792 43.962429 8.293544 -21.818812 72.715669 -15.547510 1.439737 -1.118852 -0.154370 0.185400 0.030480 -0.057680 
0.636560 16.984230 -3.475360 2.277044 24.713303 4.902943 -14.927434 12.199456 2.980393 2.603226 -2.790235 -18.282405 -8.484340 4.769254 8.795704 -0.496484 3.224986 3.474962 0.227750 0.218780 0.093180 18.449486 -11.707568 2.560339 -16.388898 -0.235769 -8.449004 8.293928 -5.707304 9.920668 -0.100649 -4.444639 2.796514 0.349540 0.323380 0.103970 -4.737196 0.888871 -7.375080 10.184713 8.331883 8.978833 3.899530 6.309481 19.172867 -2.953243 -0.342941 -9.314285 -2.569331 1.006785 42.576731 -2.352210 2.178600 0.054290 -7.490186 -23.080522 0.644211 -10.557486 -35.868849 2.727598 40.788039 -64.458588 -20.831984 -3.666514 2.619349 -0.094470 0.347310 -0.221700 0.098900 13.730027 25.924630 9.297690 45.329757 42.350327 7.971531 -15.745556 75.297486 -12.720598 1.503332 -1.280390 -0.156070 0.184040 0.033440 -0.058420 
0.637880 16.981320 -3.479340 2.125468 24.463127 4.921197 -14.936073 12.242618 2.995428 2.715883 -2.811078 -18.451109 -8.468555 4.776048 8.833221 -0.488805 3.221813 3.472493 0.220070 0.208920 0.092450 18.437587 -11.685904 2.537245 -16.366730 -0.233764 -8.781742 8.266701 -5.737610 10.269831 -0.093277 -4.405731 2.807737 0.337880 0.316640 0.100270 -4.701809 0.767916 -7.358578 10.168187 8.196590 9.107840 4.273660 6.082703 18.902484 -3.275643 -0.321902 -9.199767 -2.776857 0.989357 43.092837 -2.239080 2.236730 0.190100 -7.147337 -22.328994 0.387134 -10.650048 -35.586057 2.790480 39.308916 -66.394010 -20.724530 -3.654903 2.637061 -0.087080 0.339350 -0.216210 0.094820 13.985712 24.988117 9.327936 46.426973 40.530994 7.787684 -7.450058 77.494443 -7.907873 1.585752 -1.484373 -0.155520 0.181250 0.034150 -0.059900 
0.638710 16.976810 -3.484260 1.942318 24.101598 4.950624 -14.945817 12.292988 3.013804 2.851604 -2.847362 -18.701706 -8.438039 4.798929 8.996331 -0.484410 3.222813 3.466974 0.213450 0.199210 0.093290 18.422943 -11.667564 2.510514 -16.319182 -0.225233 -9.211542 8.184741 -5.764568 10.709117 -0.084615 -4.354956 2.822493 0.326380 0.308680 0.096050 -4.658811 0.640975 -7.341252 10.133059 8.034883 9.265598 4.672224 5.856556 18.561272 -3.565319 -0.261947 -9.081830 -2.934073 0.923022 43.715241 -2.121210 2.271030 0.262210 -6.704677 -21.503335 0.143079 -10.895614 -35.253010 2.918591 37.278997 -68.667114 -20.443390 -3.644955 2.666624 -0.075520 0.329650 -0.208960 0.090480 14.085003 23.963217 9.287135 47.506673 38.639614 7.863383 3.242074 78.975747 -0.737637 1.677838 -1.697119 -0.156220 0.180580 0.035350 -0.062920 
0.638710 16.971510 -3.491300 1.706368 23.746053 4.977247 -14.956044 12.344073 3.036033 3.030533 -2.894633 -19.029018 -8.400682 4.819806 9.178794 -0.480880 3.219375 3.460347 0.208150 0.191190 0.095550 18.406666 -11.649460 2.485681 -16.254281 -0.211241 -9.688135 8.139923 -5.805721 11.204209 -0.076726 -4.303432 2.836115 0.315130 0.296540 0.091190 -4.613936 0.513880 -7.331433 10.161750 7.851776 9.491818 5.124328 5.645566 18.152859 -3.801009 -0.171289 -8.969699 -3.057884 0.758976 44.421736 -2.032630 2.241140 0.299670 -6.286795 -20.714249 -0.039658 -11.273556 -34.914913 3.132488 34.483936 -71.240018 -19.805154 -3.638298 2.717758 -0.062080 0.317110 -0.199290 0.085250 14.109504 22.972589 9.164309 48.217562 36.590122 7.881349 14.881219 79.651581 7.644095 1.773462 -1.868386 -0.155810 0.178710 0.035610 -0.066610 
0.638620 16.965980 -3.500430 1.424905 23.363835 4.980971 -14.966349 12.397943 3.058464 3.256615 -2.943764 -19.404410 -8.344467 4.854150 9.458583 -0.477363 3.218959 3.450806 0.203460 0.182600 0.099760 18.388813 -11.631745 2.466744 -16.174114 -0.190543 -10.164851 8.092220 -5.838841 11.660641 -0.070270 -4.248753 2.850469 0.302650 0.281810 0.086500 -4.567528 0.386897 -7.331306 10.233300 7.636709 9.772981 5.581232 5.439978 17.694322 -3.954068 -0.052262 -8.897151 -3.135536 0.560953 45.281469 -1.957960 2.207190 0.351650 -5.898786 -20.009903 -0.114813 -11.735251 -34.530031 3.439245 30.616915 -74.010631 -18.483974 -3.637760 2.796360 -0.046050 0.302440 -0.187540 0.079370 14.014916 22.064643 8.969523 48.576117 34.539104 7.747447 25.422428 79.400092 15.310302 1.868168 -1.964754 -0.154940 0.175980 0.035370 -0.071350 
